<?xml version="1.0" encoding="UTF-8" standalone="no"?>
<svg width="60px" height="60px" viewBox="0 0 60 60" version="1.1" xmlns="http://www.w3.org/2000/svg" xmlns:xlink="http://www.w3.org/1999/xlink" xmlns:sketch="http://www.bohemiancoding.com/sketch/ns">
    <!-- Generator: Sketch 3.4.4 (17249) - http://www.bohemiancoding.com/sketch -->
    <title>Descending</title>
    <desc>Created with Sketch.</desc>
    <defs>
        <path id="path-1" d="M0,0.987 L935.001,0.987 L935.001,2128 L0,2128 L0,0.987 Z"></path>
        <path id="path-3" d="M0,0.987 L935.001,0.987 L935.001,2128 L0,2128 L0,0.987 Z"></path>
        <path id="path-5" d="M0,0.987 L935.001,0.987 L935.001,2128 L0,2128 L0,0.987 Z"></path>
        <path id="path-7" d="M0,0.987 L935.001,0.987 L935.001,2128 L0,2128 L0,0.987 Z"></path>
        <path id="path-9" d="M0,0.987 L935.001,0.987 L935.001,2128 L0,2128 L0,0.987 Z"></path>
        <path id="path-11" d="M0,0.987 L935.001,0.987 L935.001,2128 L0,2128 L0,0.987 Z"></path>
        <path id="path-13" d="M0,0.987 L935.001,0.987 L935.001,2128 L0,2128 L0,0.987 Z"></path>
        <path id="path-15" d="M0,0.987 L935.001,0.987 L935.001,2128 L0,2128 L0,0.987 Z"></path>
        <path id="path-17" d="M0,0.987 L935.001,0.987 L935.001,2128 L0,2128 L0,0.987 Z"></path>
        <path id="path-19" d="M0,0.987 L935.001,0.987 L935.001,2128 L0,2128 L0,0.987 Z"></path>
        <path id="path-21" d="M0,0.987 L935.001,0.987 L935.001,2128 L0,2128 L0,0.987 Z"></path>
        <path id="path-23" d="M0,0.987 L935.001,0.987 L935.001,2128 L0,2128 L0,0.987 Z"></path>
        <path id="path-25" d="M0,0.987 L935.001,0.987 L935.001,2128 L0,2128 L0,0.987 Z"></path>
        <path id="path-27" d="M0,0.987 L935.001,0.987 L935.001,2128 L0,2128 L0,0.987 Z"></path>
        <path id="path-29" d="M0,0.987 L935.001,0.987 L935.001,2128 L0,2128 L0,0.987 Z"></path>
        <path id="path-31" d="M0,0.987 L935.001,0.987 L935.001,2128 L0,2128 L0,0.987 Z"></path>
        <path id="path-33" d="M0,0.987 L935.001,0.987 L935.001,2128 L0,2128 L0,0.987 Z"></path>
        <path id="path-35" d="M0,0.987 L935.001,0.987 L935.001,2128 L0,2128 L0,0.987 Z"></path>
        <path id="path-37" d="M0,0.987 L935.001,0.987 L935.001,2128 L0,2128 L0,0.987 Z"></path>
        <path id="path-39" d="M0,0.987 L935.001,0.987 L935.001,2128 L0,2128 L0,0.987 Z"></path>
        <path id="path-41" d="M0,0.987 L935.001,0.987 L935.001,2128 L0,2128 L0,0.987 Z"></path>
        <path id="path-43" d="M0,0.987 L935.001,0.987 L935.001,2128 L0,2128 L0,0.987 Z"></path>
        <path id="path-45" d="M0,0.987 L935.001,0.987 L935.001,2128 L0,2128 L0,0.987 Z"></path>
        <path id="path-47" d="M0,0.987 L935.001,0.987 L935.001,2128 L0,2128 L0,0.987 Z"></path>
        <path id="path-49" d="M0,0.987 L935.001,0.987 L935.001,2128 L0,2128 L0,0.987 Z"></path>
        <path id="path-51" d="M0,0.987 L935.001,0.987 L935.001,2128 L0,2128 L0,0.987 Z"></path>
        <path id="path-53" d="M0,0.987 L935.001,0.987 L935.001,2128 L0,2128 L0,0.987 Z"></path>
        <path id="path-55" d="M0,0.987 L935.001,0.987 L935.001,2128 L0,2128 L0,0.987 Z"></path>
        <path id="path-57" d="M0,0.987 L935.001,0.987 L935.001,2128 L0,2128 L0,0.987 Z"></path>
        <path id="path-59" d="M0,0.987 L935.001,0.987 L935.001,2128 L0,2128 L0,0.987 Z"></path>
    </defs>
    <g id="colored" stroke="none" stroke-width="1" fill="none" fill-rule="evenodd" sketch:type="MSPage">
        <g id="Page-1" sketch:type="MSLayerGroup" transform="translate(-377.000000, -1815.000000)">
            <g id="Group-116">
                <mask id="mask-2" sketch:name="Clip 112" fill="white">
                    <use xlink:href="#path-1"></use>
                </mask>
                <g id="Clip-112"></g>
            </g>
            <g id="Group-255">
                <mask id="mask-4" sketch:name="Clip 253" fill="white">
                    <use xlink:href="#path-3"></use>
                </mask>
                <g id="Clip-253"></g>
            </g>
            <g id="Group-321">
                <mask id="mask-6" sketch:name="Clip 298" fill="white">
                    <use xlink:href="#path-5"></use>
                </mask>
                <g id="Clip-298"></g>
            </g>
            <g id="Group-464"></g>
            <g id="Group-556"></g>
            <g id="Group-590"></g>
            <g id="Group-678">
                <mask id="mask-8" sketch:name="Clip 675" fill="white">
                    <use xlink:href="#path-7"></use>
                </mask>
                <g id="Clip-675"></g>
            </g>
            <g id="Group-757"></g>
            <g id="Group-774"></g>
            <g id="Group-799"></g>
            <g id="Group-815"></g>
            <g id="Group-827"></g>
            <g id="Group-850"></g>
            <g id="Group-873"></g>
            <g id="Group-896"></g>
            <g id="Group-919"></g>
            <g id="Group-942"></g>
            <g id="Group-965"></g>
            <g id="Group-988"></g>
            <g id="Group-1010">
                <mask id="mask-10" sketch:name="Clip 1006" fill="white">
                    <use xlink:href="#path-9"></use>
                </mask>
                <g id="Clip-1006"></g>
            </g>
            <g id="Group-1061"></g>
            <g id="Group-1195">
                <mask id="mask-12" sketch:name="Clip 1194" fill="white">
                    <use xlink:href="#path-11"></use>
                </mask>
                <g id="Clip-1194"></g>
            </g>
            <g id="Group-1241">
                <mask id="mask-14" sketch:name="Clip 1237" fill="white">
                    <use xlink:href="#path-13"></use>
                </mask>
                <g id="Clip-1237"></g>
            </g>
            <g id="Group-1262"></g>
            <g id="Group-1330"></g>
            <g id="Group-1358"></g>
            <g id="Group-1369">
                <mask id="mask-16" sketch:name="Clip 1365" fill="white">
                    <use xlink:href="#path-15"></use>
                </mask>
                <g id="Clip-1365"></g>
            </g>
            <g id="Group-1385">
                <mask id="mask-18" sketch:name="Clip 1381" fill="white">
                    <use xlink:href="#path-17"></use>
                </mask>
                <g id="Clip-1381"></g>
            </g>
            <g id="Group-1396"></g>
            <g id="Group-1412">
                <mask id="mask-20" sketch:name="Clip 1408" fill="white">
                    <use xlink:href="#path-19"></use>
                </mask>
                <g id="Clip-1408"></g>
            </g>
            <g id="Group-1430"></g>
            <g id="Group-1459">
                <mask id="mask-22" sketch:name="Clip 1457" fill="white">
                    <use xlink:href="#path-21"></use>
                </mask>
                <g id="Clip-1457"></g>
            </g>
            <g id="Group-1468">
                <mask id="mask-24" sketch:name="Clip 1466" fill="white">
                    <use xlink:href="#path-23"></use>
                </mask>
                <g id="Clip-1466"></g>
            </g>
            <g id="Group-1477">
                <mask id="mask-26" sketch:name="Clip 1475" fill="white">
                    <use xlink:href="#path-25"></use>
                </mask>
                <g id="Clip-1475"></g>
            </g>
            <g id="Group-1486">
                <mask id="mask-28" sketch:name="Clip 1484" fill="white">
                    <use xlink:href="#path-27"></use>
                </mask>
                <g id="Clip-1484"></g>
            </g>
            <g id="Group-1517"></g>
            <g id="Group-1528"></g>
            <g id="Group-1539"></g>
            <g id="Group-1558"></g>
            <g id="Group-1607"></g>
            <g id="Group-1672"></g>
            <g id="Group-1760">
                <mask id="mask-30" sketch:name="Clip 1758" fill="white">
                    <use xlink:href="#path-29"></use>
                </mask>
                <g id="Clip-1758"></g>
            </g>
            <g id="Group-1813"></g>
            <g id="Group-1844">
                <mask id="mask-32" sketch:name="Clip 1841" fill="white">
                    <use xlink:href="#path-31"></use>
                </mask>
                <g id="Clip-1841"></g>
            </g>
            <g id="Group-1858"></g>
            <g id="Group-1956">
                <mask id="mask-34" sketch:name="Clip 1954" fill="white">
                    <use xlink:href="#path-33"></use>
                </mask>
                <g id="Clip-1954"></g>
            </g>
            <g id="Group-1992">
                <mask id="mask-36" sketch:name="Clip 1989" fill="white">
                    <use xlink:href="#path-35"></use>
                </mask>
                <g id="Clip-1989"></g>
            </g>
            <g id="Group-2002">
                <mask id="mask-38" sketch:name="Clip 1999" fill="white">
                    <use xlink:href="#path-37"></use>
                </mask>
                <g id="Clip-1999"></g>
            </g>
            <g id="Group-2046">
                <mask id="mask-40" sketch:name="Clip 2043" fill="white">
                    <use xlink:href="#path-39"></use>
                </mask>
                <g id="Clip-2043"></g>
            </g>
            <g id="Group-2102">
                <mask id="mask-42" sketch:name="Clip 2098" fill="white">
                    <use xlink:href="#path-41"></use>
                </mask>
                <g id="Clip-2098"></g>
            </g>
            <g id="Group-2116">
                <mask id="mask-44" sketch:name="Clip 2109" fill="white">
                    <use xlink:href="#path-43"></use>
                </mask>
                <g id="Clip-2109"></g>
            </g>
            <g id="Group-2202">
                <mask id="mask-46" sketch:name="Clip 2194" fill="white">
                    <use xlink:href="#path-45"></use>
                </mask>
                <g id="Clip-2194"></g>
            </g>
            <g id="Group-2364">
                <mask id="mask-48" sketch:name="Clip 2363" fill="white">
                    <use xlink:href="#path-47"></use>
                </mask>
                <g id="Clip-2363"></g>
            </g>
            <g id="Group-2371"></g>
            <g id="Group-2419">
                <mask id="mask-50" sketch:name="Clip 2418" fill="white">
                    <use xlink:href="#path-49"></use>
                </mask>
                <g id="Clip-2418"></g>
            </g>
            <g id="Group-2469"></g>
            <g id="Group-2573">
                <mask id="mask-52" sketch:name="Clip 2545" fill="white">
                    <use xlink:href="#path-51"></use>
                </mask>
                <g id="Clip-2545"></g>
                <path d="M383,1871.987 L381,1871.987 L381,1857.987 L383,1857.987 L383,1871.987 Z" id="Fill-2559" fill="#314E55" sketch:type="MSShapeGroup" mask="url(#mask-52)"></path>
                <path d="M387,1871.987 L385,1871.987 L385,1848.987 L387,1848.987 L387,1871.987 Z" id="Fill-2560" fill="#314E55" sketch:type="MSShapeGroup" mask="url(#mask-52)"></path>
                <path d="M391,1871.896 L389,1871.896 L389,1846.987 L391,1846.987 L391,1871.896 Z" id="Fill-2561" fill="#314E55" sketch:type="MSShapeGroup" mask="url(#mask-52)"></path>
                <path d="M395,1871.896 L393,1871.896 L393,1843.987 L395,1843.987 L395,1871.896 Z" id="Fill-2562" fill="#314E55" sketch:type="MSShapeGroup" mask="url(#mask-52)"></path>
                <path d="M399,1871.987 L397,1871.987 L397,1837.987 L399,1837.987 L399,1871.987 Z" id="Fill-2563" fill="#314E55" sketch:type="MSShapeGroup" mask="url(#mask-52)"></path>
                <path d="M403,1871.987 L401,1871.987 L401,1836.987 L403,1836.987 L403,1871.987 Z" id="Fill-2564" fill="#314E55" sketch:type="MSShapeGroup" mask="url(#mask-52)"></path>
                <path d="M407,1871.987 L405,1871.987 L405,1840.969 L407,1840.969 L407,1871.987 Z" id="Fill-2565" fill="#314E55" sketch:type="MSShapeGroup" mask="url(#mask-52)"></path>
                <path d="M411,1871.877 L409,1871.877 L409,1844.987 L411,1844.987 L411,1871.877 Z" id="Fill-2566" fill="#314E55" sketch:type="MSShapeGroup" mask="url(#mask-52)"></path>
                <path d="M415,1871.877 L413,1871.877 L413,1846.987 L415,1846.987 L415,1871.877 Z" id="Fill-2567" fill="#314E55" sketch:type="MSShapeGroup" mask="url(#mask-52)"></path>
                <path d="M419,1871.987 L417,1871.987 L417,1857.987 L419,1857.987 L419,1871.987 Z" id="Fill-2568" fill="#314E55" sketch:type="MSShapeGroup" mask="url(#mask-52)"></path>
                <path d="M423,1871.987 L421,1871.987 L421,1853.987 L423,1853.987 L423,1871.987 Z" id="Fill-2569" fill="#314E55" sketch:type="MSShapeGroup" mask="url(#mask-52)"></path>
                <path d="M427,1871.987 L425,1871.987 L425,1856.939 L427,1856.939 L427,1871.987 Z" id="Fill-2570" fill="#314E55" sketch:type="MSShapeGroup" mask="url(#mask-52)"></path>
                <path d="M426.6587,1844.0428 L409.3227,1830.4998 L410.5537,1828.9238 L427.8897,1842.4668 L426.6587,1844.0428 Z" id="Fill-2571" fill="#314E55" sketch:type="MSShapeGroup" mask="url(#mask-52)"></path>
                <path d="M420.4668,1846.16 C419.9688,1846.16 419.5378,1845.789 419.4758,1845.282 C419.4078,1844.733 419.7988,1844.235 420.3458,1844.168 L427.0678,1843.342 L426.2098,1836.358 C426.1428,1835.809 426.5328,1835.311 427.0808,1835.244 C427.6288,1835.17 428.1278,1835.565 428.1958,1836.114 L429.1748,1844.091 C429.2418,1844.639 428.8518,1845.138 428.3038,1845.205 L420.5908,1846.152 C420.5488,1846.158 420.5078,1846.16 420.4668,1846.16" id="Fill-2572" fill="#314E55" sketch:type="MSShapeGroup" mask="url(#mask-52)"></path>
            </g>
            <g id="Group-2581">
                <mask id="mask-54" sketch:name="Clip 2580" fill="white">
                    <use xlink:href="#path-53"></use>
                </mask>
                <g id="Clip-2580"></g>
            </g>
            <g id="Group-2593"></g>
            <g id="Group-2702">
                <mask id="mask-56" sketch:name="Clip 2698" fill="white">
                    <use xlink:href="#path-55"></use>
                </mask>
                <g id="Clip-2698"></g>
            </g>
            <g id="Group-2912">
                <mask id="mask-58" sketch:name="Clip 2908" fill="white">
                    <use xlink:href="#path-57"></use>
                </mask>
                <g id="Clip-2908"></g>
            </g>
            <g id="Group-3044">
                <mask id="mask-60" sketch:name="Clip 3039" fill="white">
                    <use xlink:href="#path-59"></use>
                </mask>
                <g id="Clip-3039"></g>
            </g>
        </g>
        <g id="Free_sliced" sketch:type="MSLayerGroup" transform="translate(-360.000000, -1800.000000)"></g>
    </g>
</svg>